<?xml version="1.0" encoding="UTF-8"?>
<svg width="898.67pt" version="1.1" xmlns="http://www.w3.org/2000/svg" height="216.171pt" viewBox="0 0 898.67 216.171" xmlns:xlink="http://www.w3.org/1999/xlink">
 <title>Untitled-3</title>
 <defs>
  <clipPath id="Clip0">
   <path d="M0 0 L898.67 0 L898.67 216.171 L0 216.171 L0 0 Z" transform="translate(0, 0)"/>
  </clipPath>
  <clipPath id="Clip1">
   <path d="M0 0 L664.715 0 L664.715 159.576 L0 159.576 L0 0 Z" transform="translate(0, 0)"/>
  </clipPath>
 </defs>
 <g id="Layer 1">
  <g id="Gruppe2" clip-path="url(#Clip0)">
   <g id="Gruppe1" clip-path="url(#Clip1)">
    <path style="fill:#143b51; fill-rule:nonzero;stroke:none;" d="M0 1.0654 C2.6968 0.6377 5.3262 0.355 7.8828 0.2129 C10.44 0.0728 13.0669 0 15.7661 0 C18.1802 0 20.666 0.0728 23.2227 0.2129 C25.7798 0.355 28.4068 0.6377 31.1065 1.0654 L31.1065 80.5342 C31.1065 89.1997 31.4263 96.6177 32.065 102.796 C32.7036 108.976 33.982 114.087 35.8999 118.135 C37.8179 122.184 40.5127 125.169 43.9951 127.082 C47.4746 129 51.9844 129.959 57.5244 129.959 C63.0635 129.959 67.5381 129 70.9468 127.082 C74.355 125.169 77.0176 122.184 78.9356 118.135 C80.854 114.087 82.1319 108.976 82.7705 102.796 C83.4107 96.6177 83.7295 89.1997 83.7295 80.5342 L83.7295 1.0654 C86.5689 0.6377 89.2696 0.355 91.8247 0.2129 C94.3824 0.0728 96.8653 0 99.2818 0 C101.838 0 104.429 0.0728 107.059 0.2129 C109.686 0.355 112.349 0.6377 115.048 1.0654 L115.048 87.1367 C115.048 97.5093 114.195 106.99 112.491 115.58 C110.787 124.174 107.732 131.524 103.331 137.631 C98.9268 143.737 93.0303 148.465 85.6475 151.798 C78.2608 155.137 68.8858 156.806 57.5244 156.806 C46.1597 156.806 36.7847 155.137 29.4019 151.798 C22.0152 148.465 16.1187 143.737 11.7193 137.631 C7.314 131.524 4.2608 124.174 2.5567 115.58 C0.8526 106.99 0 97.5093 0 87.1367 L0 1.0654 Z" transform="translate(0, 2.7705)"/>
    <path style="fill:#143b51; fill-rule:nonzero;stroke:none;" d="M0 2.5552 C1.9878 2.1299 3.9746 1.8116 5.9653 1.5967 C7.9531 1.3838 10.1538 1.2779 12.5703 1.2779 C14.9834 1.2779 17.1142 1.3838 18.9619 1.5967 C20.8061 1.8116 22.7226 2.1299 24.7143 2.5552 C25.1391 3.2681 25.5297 4.2969 25.8862 5.6446 C26.2382 6.9981 26.5586 8.4156 26.8447 9.9058 C27.1279 11.399 27.3774 12.8555 27.5903 14.273 C27.8027 15.6958 27.9804 16.9038 28.1225 17.8965 C29.2578 15.7657 30.75 13.6358 32.5961 11.5049 C34.4419 9.3745 36.645 7.4566 39.2016 5.7515 C41.7583 4.0484 44.6337 2.6617 47.83 1.5967 C51.0253 0.5313 54.6113 0 58.5883 0 C75.7724 0 86.7817 6.5337 91.6128 19.5992 C94.4516 14.3482 98.4628 9.7661 103.649 5.8575 C108.833 1.9541 115.4 0 123.356 0 C135.853 0 145.051 3.4444 150.946 10.3335 C156.839 17.2227 159.788 27.9815 159.788 42.6099 L159.788 112.705 C154.675 113.556 149.632 113.98 144.661 113.98 C139.689 113.98 134.649 113.556 129.535 112.705 L129.535 50.4903 C129.535 42.8223 128.576 36.9307 126.66 32.8101 C124.742 28.6914 120.869 26.6309 115.048 26.6309 C112.631 26.6309 110.254 26.9864 107.91 27.6963 C105.567 28.4092 103.436 29.7207 101.518 31.6382 C99.602 33.5537 98.0366 36.2544 96.8315 39.7329 C95.6235 43.2163 95.021 47.7222 95.021 53.2637 L95.021 112.705 C89.9072 113.556 84.8647 113.98 79.8935 113.98 C74.9209 113.98 69.8813 113.556 64.7675 112.705 L64.7675 50.4903 C64.7675 42.8223 63.8086 36.9307 61.8916 32.8101 C59.9736 28.6914 56.103 26.6309 50.2807 26.6309 C47.8637 26.6309 45.4492 26.9864 43.0366 27.6963 C40.6191 28.4092 38.455 29.793 36.5385 31.8511 C34.6206 33.9112 33.0927 36.7886 31.9575 40.479 C30.8198 44.1753 30.2534 49.0025 30.2534 54.9688 L30.2534 112.705 C25.1391 113.556 20.0971 113.98 15.1269 113.98 C10.1538 113.98 5.1137 113.556 0 112.705 L0 2.5552 Z" transform="translate(143.807, 44.3154)"/>
    <path style="fill:#143b51; fill-rule:nonzero;stroke:none;" d="M0 1.2773 C5.1109 0.4272 10.082 0 14.9131 0 C19.8843 0 24.9253 0.4272 30.0391 1.2773 L30.0391 57.523 C32.1694 53.6899 35.7178 50.5303 40.6919 48.042 C45.6631 45.5591 51.3443 44.3154 57.7359 44.3154 C64.127 44.3154 70.0571 45.4531 75.5259 47.7236 C80.9898 49.9966 85.7144 53.4439 89.6934 58.0571 C93.669 62.6733 96.7944 68.4634 99.0703 75.4199 C101.34 82.3814 102.476 90.6226 102.476 100.134 C102.476 109.367 101.056 117.641 98.2149 124.954 C95.3716 132.273 91.2529 138.483 85.8569 143.595 C80.4585 148.711 73.8545 152.65 66.0449 155.418 C58.2334 158.191 49.4263 159.576 39.6265 159.576 C36.5005 159.576 33.1987 159.431 29.7173 159.15 C26.2368 158.866 22.7222 158.472 19.1743 157.98 C15.6206 157.477 12.2124 156.844 8.9468 156.061 C5.6782 155.284 2.6948 154.392 0 153.398 L0 1.2773 Z M30.0391 133.159 C31.7446 133.725 33.5537 134.082 35.4717 134.223 C37.3897 134.367 39.3384 134.436 41.3291 134.436 C50.561 134.436 57.8057 131.739 63.062 126.338 C68.3154 120.941 70.9434 112.492 70.9434 100.984 C70.9434 90.7622 69.311 82.9829 66.0449 77.6567 C62.7739 72.3306 57.2378 69.6689 49.4263 69.6689 C43.7451 69.6689 39.0952 71.5527 35.4717 75.3135 C31.8482 79.0801 30.0391 85.0073 30.0391 93.1055 L30.0391 133.159 Z" transform="translate(330.655, 0)"/>
    <path style="fill:#143b51; fill-rule:nonzero;stroke:none;" d="M0 1.2773 C5.1162 0.4272 10.1553 0 15.126 0 C20.0976 0 25.1406 0.4272 30.2558 1.2773 L30.2558 59.6518 C30.2558 65.479 30.7158 70.2739 31.6387 74.0366 C32.5615 77.8003 33.9814 80.7807 35.9004 82.9839 C37.8183 85.187 40.1972 86.7475 43.0381 87.6704 C45.8789 88.5981 49.2178 89.0542 53.0527 89.0542 C58.3037 89.0542 62.7099 88.562 66.2607 87.5659 L66.2607 1.2773 C71.3721 0.4272 76.3428 0 81.1748 0 C86.1455 0 91.1894 0.4272 96.2998 1.2773 L96.2998 107.165 C91.7539 108.731 85.7568 110.255 78.2978 111.744 C70.8428 113.236 63.0635 113.983 54.9707 113.983 C47.7236 113.983 40.7627 113.413 34.0908 112.278 C27.4111 111.142 21.5547 108.731 16.5156 105.036 C11.4717 101.345 7.4599 95.9487 4.4736 88.8423 C1.4931 81.7397 0 72.2954 0 60.5078 L0 1.2773 Z" transform="translate(454.86, 45.5933)"/>
    <path style="fill:#143b51; fill-rule:nonzero;stroke:none;" d="M0 107.594 L49.6446 23.2232 L7.459 23.2232 C7.0352 21.0928 6.7442 19.0347 6.6045 17.044 C6.4649 15.0586 6.3926 13.0708 6.3926 11.0806 C6.3926 9.2349 6.4649 7.4233 6.6045 5.648 C6.7442 3.8726 7.0352 1.9907 7.459 0 L94.1729 0 L95.2354 2.5581 L44.7403 86.9263 L91.6113 86.9263 C92.042 89.0571 92.3223 91.1148 92.4668 93.106 C92.6065 95.0962 92.6797 97.0816 92.6797 99.0718 C92.6797 100.918 92.6065 102.727 92.4668 104.504 C92.3223 106.283 92.042 108.16 91.6113 110.15 L1.7061 110.15 L0 107.594 Z" transform="translate(569.479, 46.8706)"/>
   </g>
   <path style="fill:#143b51; fill-rule:nonzero;stroke:none;" d="M0.3575 64.6196 C0.2383 63.7856 0.1494 62.9663 0.0909 62.1626 C0.0303 61.3589 0 60.5405 0 59.7065 C0 58.8716 0.0303 58.021 0.0909 57.1577 C0.1494 56.2954 0.2383 55.4448 0.3575 54.6099 C1.1924 54.4917 2.0108 54.4009 2.8145 54.3433 C3.6211 54.2837 4.4395 54.2534 5.2744 54.2534 C6.1084 54.2534 6.9561 54.2837 7.8223 54.3433 C8.6817 54.4009 9.5323 54.4917 10.3672 54.6099 C10.4864 55.4448 10.5772 56.2798 10.6368 57.1108 C10.6963 57.9487 10.7246 58.7808 10.7246 59.6148 C10.7246 60.4497 10.6963 61.2847 10.6368 62.1157 C10.5772 62.9536 10.4864 63.7856 10.3672 64.6196 C9.5323 64.7388 8.6983 64.8276 7.8662 64.8892 C7.0293 64.9468 6.1993 64.978 5.3653 64.978 C4.5303 64.978 3.6963 64.9468 2.8614 64.8892 C2.0264 64.8276 1.1924 64.7388 0.3575 64.6196 Z M0.7149 0.3579 C1.4903 0.2388 2.25 0.148 2.9961 0.0884 C3.7403 0.0317 4.4991 0 5.2744 0 C6.1084 0 6.9405 0.0317 7.7774 0.0884 C8.6094 0.148 9.4444 0.2388 10.2793 0.3579 L9.7451 45.3159 C8.3711 45.5542 6.9717 45.6714 5.541 45.6714 C3.9336 45.6714 2.5313 45.5542 1.3428 45.3159 L0.7149 0.3579 Z" transform="translate(826.721, 101.946)"/>
   <path style="fill:#143b51; fill-rule:nonzero;stroke:none;" d="M68.6523 0 C22.6543 0 0 26.6392 0 59.4781 C0 89.0088 18.3242 113.507 55.4551 118.142 C57.0195 129.162 51.3281 142.909 40.0273 147.87 C68.1054 141.675 79.8388 129.053 84.5127 117.769 C119.851 112.32 137.303 88.2891 137.303 59.4781 C137.303 26.6392 114.644 0 68.6523 0 Z M75.8994 87.7188 C75.8398 88.5528 75.7509 89.3877 75.6328 90.2217 C74.8574 90.3418 74.0508 90.4297 73.2187 90.4922 C72.3847 90.5479 71.5468 90.5801 70.7148 90.5801 C69.8808 90.5801 68.9873 90.5479 68.0332 90.4922 C67.0791 90.4297 66.2754 90.3418 65.623 90.2217 C65.5009 89.3877 65.4121 88.5694 65.3535 87.7657 C65.2929 86.9619 65.2627 86.1426 65.2627 85.3086 C65.2627 84.4737 65.2929 83.6397 65.3535 82.8047 C65.4121 81.9698 65.5009 81.1358 65.623 80.3008 C66.4551 80.1817 67.289 80.0782 68.124 79.9893 C68.959 79.9014 69.791 79.8545 70.625 79.8545 C71.4599 79.8545 72.2939 79.9014 73.1289 79.9893 C73.9638 80.0782 74.7978 80.1817 75.6328 80.3008 C75.7509 81.1358 75.8398 81.9541 75.8994 82.7578 C75.959 83.5616 75.9902 84.3799 75.9902 85.2149 C75.9902 86.0489 75.959 86.8838 75.8994 87.7188 Z M88.457 51.21 C87.2363 53.3819 85.8047 55.2012 84.1679 56.6577 C82.5263 58.1197 80.9433 59.2808 79.2168 60.1465 C77.4843 61.0122 75.1113 61.6187 75.1113 61.9766 L75.1113 71.1826 C73.1113 71.4209 72.1855 71.5401 70.6347 71.5401 C69.9785 71.5401 69.5879 71.5142 68.8711 71.4522 C68.1562 71.395 67.1113 71.3018 67.1113 71.1826 L67.1113 56.7046 C70.1113 56.1084 71.0586 55.4395 72.8476 54.6934 C74.6308 53.9468 75.9824 53.0552 77.2324 52.0132 C78.4863 50.9712 79.3525 49.7637 80.0088 48.3897 C80.6621 47.021 80.9472 45.3833 80.9472 43.4756 C80.9472 40.4385 79.7929 38.0533 77.5293 36.3272 C75.2646 34.5987 72.0068 33.7354 67.7763 33.7354 C65.0937 33.7354 62.9287 33.9273 61.291 34.3159 C59.6523 34.7051 57.9648 35.2237 56.2392 35.8819 C55.7002 34.7491 55.2392 33.5723 54.8525 32.3487 C54.4648 31.1284 54.1797 29.8325 54.0009 28.4639 C55.4316 27.9868 56.7558 27.5825 57.9795 27.2559 C59.2002 26.9292 60.3926 26.6729 61.5537 26.4942 C62.7168 26.3174 63.8906 26.1826 65.084 26.0923 C66.2754 26.0015 67.5566 25.96 68.9297 25.96 C75.959 25.96 81.2773 27.5542 84.8828 30.7393 C88.4853 33.9273 90.289 38.1446 90.289 43.3877 C90.289 46.4253 89.6777 49.0323 88.457 51.21 Z" transform="translate(664.715, 29.5947)"/>
   <path style="fill:#143b51; fill-rule:nonzero;stroke:none;" d="M64.5235 0 C55.0479 0 46.5801 1.147 39.0791 3.2286 C39.9893 6.6197 40.6348 10.1226 41.0186 13.7149 C47.9541 11.6944 55.8047 10.6162 64.5235 10.6162 C100.864 10.6162 122.558 28.8824 122.558 59.4766 C122.558 85.5655 106.598 102.983 78.7666 107.275 C75.0977 107.84 71.9932 110.282 70.5762 113.708 C68.836 117.906 65.9697 121.681 62.044 124.993 C62.2842 122.116 62.2119 119.296 61.836 116.648 C61.1621 111.904 57.3965 108.197 52.6406 107.607 C30.6328 104.861 15.667 94.2979 9.5664 77.8213 C6.5938 79.4493 3.3926 80.8829 0 82.1426 C7.2852 100.845 24.2989 114.766 51.3262 118.14 C52.8916 129.161 47.2002 142.907 35.8994 147.868 C63.9776 141.674 75.71 129.052 80.3828 117.767 C115.723 112.319 133.174 88.2881 133.174 59.4766 C133.174 26.6377 110.516 0 64.5235 0 Z" transform="translate(765.496, 68.3027)"/>
  </g>
 </g>
</svg>
